HIERARCHY
ROOT Hips
{
	OFFSET 0.000000 0.000000 0.000000
	CHANNELS 6 Xposition Yposition Zposition Zrotation Yrotation Xrotation 
	JOINT LHipJoint
	{
		OFFSET 0.000000 0.000000 0.000000
		CHANNELS 3 Zrotation Yrotation Xrotation
		JOINT LeftUpLeg
		{
			OFFSET 1.363060 -1.794630 0.839290
			CHANNELS 3 Zrotation Yrotation Xrotation
			JOINT LeftLeg
			{
				OFFSET 2.448110 -6.726130 0.000000
				CHANNELS 3 Zrotation Yrotation Xrotation
				JOINT LeftFoot
				{
					OFFSET 2.562200 -7.039590 0.000000
					CHANNELS 3 Zrotation Yrotation Xrotation
					JOINT LeftToeBase
					{
						OFFSET 0.157640 -0.433110 2.322550
						CHANNELS 3 Zrotation Yrotation Xrotation
						End Site
						{
							OFFSET 0.000000 0.000000 0.000000
						}
					}
				}
			}
		}
	}
	JOINT RHipJoint
	{
		OFFSET 0.000000 0.000000 0.000000
		CHANNELS 3 Zrotation Yrotation Xrotation
		JOINT RightUpLeg
		{
			OFFSET -1.305520 -1.794630 0.839290
			CHANNELS 3 Zrotation Yrotation Xrotation
			JOINT RightLeg
			{
				OFFSET -2.542530 -6.985550 0.000000
				CHANNELS 3 Zrotation Yrotation Xrotation
				JOINT RightFoot
				{
					OFFSET -2.568260 -7.056230 0.000000
					CHANNELS 3 Zrotation Yrotation Xrotation
					JOINT RightToeBase
					{
						OFFSET -0.164730 -0.452590 2.363150
						CHANNELS 3 Zrotation Yrotation Xrotation
						End Site
						{
							OFFSET 0.000000 0.000000 0.000000
						}
					}
				}
			}
		}
	}
}
MOTION
Frames: 25
Frame Time: 0.008333
0.854856 17.108143 1.237143 7.526002 -79.133273 12.417546 -10.022279 3.276521 6.554674 -7.735306 0.513437 -29.424473 -2.258929 -0.903246 12.775952 1.785936 9.191972 -6.332487 0.521499 0.000000 -46.960300 10.019025 -1.752227 2.390162 7.008435 -15.978526 -23.727188 2.281131 1.213850 10.699399 -3.045048 -14.821762 -4.295292 -2.120900 -0.000000 -65.966300
0.840432 17.115063 1.280428 5.974845 -76.822280 14.373111 -9.979116 3.298692 7.093995 -7.064140 -1.216866 -30.007730 -2.184992 -0.961930 12.324013 1.690595 8.676403 -5.824683 0.608299 -0.000000 -47.245800 9.991582 -1.877049 2.304484 7.691385 -17.065042 -23.536211 2.359646 1.331298 9.645079 -3.172681 -15.739558 -3.714621 -2.432201 0.000000 -65.948300
0.830169 17.124004 1.324238 4.960476 -74.523567 15.750556 -9.914595 3.327071 7.610973 -6.387605 -2.932443 -30.475002 -2.113526 -1.025489 11.737513 1.594175 8.207834 -5.224866 0.702900 0.000000 -47.538900 9.991019 -1.994859 2.206812 8.309298 -18.145136 -23.273130 2.431999 1.444778 8.541368 -3.277858 -16.602524 -3.043412 -2.779100 -0.000000 -65.991700
0.824289 17.134929 1.368194 4.277374 -72.254309 16.751027 -9.837436 3.356541 8.096427 -5.715637 -4.599615 -30.831250 -2.047567 -1.091853 11.039017 1.494007 7.767311 -4.543681 0.800800 0.000000 -47.833600 10.010426 -2.109558 2.102625 8.855076 -19.192695 -22.929367 2.496246 1.553516 7.389110 -3.362051 -17.417130 -2.281314 -3.164300 -0.000001 -66.094900
0.822978 17.147861 1.410970 3.859181 -70.033950 17.426388 -9.748763 3.383065 8.539331 -5.077031 -6.202975 -31.041918 -1.990804 -1.161218 10.226134 1.390520 7.359190 -3.783111 0.900800 0.000000 -48.120400 10.052382 -2.219416 1.987372 9.295812 -20.218143 -22.494966 2.550268 1.651966 6.213901 -3.421474 -18.157882 -1.440044 -3.578100 0.000000 -66.261000
0.826172 17.162604 1.452343 3.598992 -67.880123 17.882641 -9.656217 3.402278 8.932654 -4.478546 -7.708678 -31.123927 -1.946031 -1.230766 9.332939 1.281642 6.961590 -2.961841 0.997100 0.000000 -48.396000 10.110452 -2.328057 1.868781 9.636695 -21.187639 -21.966515 2.592137 1.740615 5.014710 -3.461151 -18.843012 -0.523238 -4.022300 0.000000 -66.482701
0.833656 17.179068 1.490980 3.493763 -65.813917 18.110147 -9.558718 3.411363 9.269237 -3.951454 -9.114489 -31.041246 -1.916249 -1.300820 8.358917 1.170084 6.589243 -2.085011 1.090001 0.000000 -48.645100 10.188734 -2.431975 1.738414 9.847857 -22.129490 -21.346380 2.621450 1.812488 3.833335 -3.476909 -19.435859 0.446362 -4.477600 -0.000000 -66.753800
0.844932 17.196936 1.526493 3.503893 -63.854849 18.149764 -9.460504 3.408037 9.547033 -3.507363 -10.408518 -30.799781 -1.902787 -1.369617 7.329376 1.057193 6.240184 -1.170177 1.177200 0.000000 -48.857300 10.283481 -2.531294 1.596348 9.930222 -23.042620 -20.646978 2.638805 1.865384 2.693590 -3.470777 -19.930597 1.452116 -4.932100 -0.000001 -67.063500
0.859860 17.215901 1.558780 3.585305 -62.021653 18.045541 -9.368129 3.390366 9.764800 -3.149672 -11.574892 -30.417201 -1.905186 -1.434490 6.278363 0.943975 5.907105 -0.239227 1.255400 0.000000 -49.027300 10.387373 -2.626598 1.444286 9.896848 -23.914580 -19.879450 2.644717 1.899390 1.609475 -3.447852 -20.338079 2.479051 -5.378899 0.000000 -67.401500
0.877909 17.235629 1.587649 3.727406 -60.331626 17.813567 -9.285247 3.357833 9.924374 -2.884767 -12.612810 -29.903908 -1.922155 -1.494137 5.230119 0.833279 5.596165 0.689573 1.324200 0.000000 -49.144500 10.495618 -2.716381 1.279187 9.754560 -24.756772 -19.066775 2.641557 1.912793 0.610753 -3.410083 -20.650056 3.505036 -5.802900 -0.000000 -67.756000
0.898859 17.255824 1.613061 3.914917 -58.799749 17.473204 -9.216827 3.309927 10.027470 -2.713087 -13.519765 -29.276696 -1.951047 -1.546834 4.211690 0.727506 5.310353 1.596963 1.383100 0.000000 -49.203600 10.601216 -2.799135 1.098455 9.516864 -25.573832 -18.229572 2.631486 1.905493 -0.281669 -3.361123 -20.870271 4.512000 -6.194000 0.000000 -68.128000
0.922404 17.276199 1.635247 4.135162 -57.436723 17.050099 -9.167369 3.246943 10.079008 -2.629427 -14.296983 -28.568248 -1.988412 -1.591297 3.251969 0.628953 5.052210 2.463740 1.432200 -0.000000 -49.196700 10.696437 -2.873311 0.902270 9.204860 -26.365719 -17.400323 2.617409 1.878746 -1.048215 -3.305477 -21.007066 5.478790 -6.543700 -0.000000 -68.491900
0.948295 17.296533 1.654250 4.385322 -56.250635 16.558719 -9.140743 3.168787 10.080590 -2.629138 -14.945916 -27.799220 -2.030748 -1.626621 2.371028 0.539470 4.825529 3.276126 1.472700 -0.000000 -49.124200 10.775226 -2.936410 0.688406 8.832922 -27.132684 -16.598492 2.600776 1.834183 -1.679425 -3.247574 -21.074509 6.390932 -6.848601 0.000000 -68.846600
0.976257 17.316689 1.670348 4.659148 -55.245092 16.022639 -9.139398 3.075869 10.036091 -2.703225 -15.469993 -27.003841 -2.074687 -1.652632 1.586728 0.460379 4.632782 4.023054 1.506100 0.000000 -48.986800 10.832169 -2.986163 0.458960 8.422146 -27.863757 -15.852315 2.582818 1.774868 -2.171623 -3.192904 -21.094153 7.232680 -7.109699 -0.000000 -69.172900
1.006052 17.336574 1.683481 4.959067 -54.419435 15.449892 -9.163594 2.968232 9.946040 -2.846987 -15.873688 -26.196638 -2.117891 -1.669464 0.905838 0.392420 4.477408 4.700487 1.534700 0.000000 -48.791400 10.865660 -3.019506 0.212053 7.981742 -28.559405 -15.173940 2.563889 1.702517 -2.526120 -3.144477 -21.081099 7.998077 -7.329900 0.000000 -69.494200
1.037095 17.356088 1.693752 5.285327 -53.768327 14.856424 -9.210935 2.847366 9.813907 -3.052159 -16.161790 -25.400842 -2.159071 -1.678187 0.331370 0.335416 4.359454 5.308169 1.560700 -0.000000 -48.545800 10.876538 -3.034733 -0.048695 7.526241 -29.210979 -14.580529 2.544269 1.620130 -2.750669 -3.105443 -21.052358 8.679214 -7.513300 0.000000 -69.794900
1.068686 17.375132 1.701475 5.630566 -53.286894 14.267196 -9.276461 2.716598 9.646034 -3.307284 -16.337901 -24.647099 -2.197816 -1.680698 -0.138276 0.288337 4.275522 5.849935 1.585700 0.000000 -48.262200 10.868029 -3.031753 -0.312918 7.074960 -29.794189 -14.091136 2.523239 1.532281 -2.861384 -3.079884 -21.032762 9.268531 -7.669000 0.000000 -70.044800
1.100292 17.393687 1.706608 5.993016 -52.962777 13.683714 -9.353254 2.579381 9.446298 -3.607530 -16.406254 -23.937051 -2.234989 -1.678472 -0.513447 0.249442 4.219628 6.334144 1.610400 -0.000001 -47.957199 10.846843 -3.010809 -0.577806 6.632088 -30.317669 -13.704159 2.501558 1.440462 -2.871424 -3.065768 -21.019010 9.770264 -7.798001 0.000000 -70.259500
1.131494 17.411700 1.709146 6.319706 -52.754111 13.143722 -9.416221 2.440160 9.222066 -3.935010 -16.365675 -23.277734 -2.274446 -1.674971 -0.798471 0.215354 4.176876 6.769727 1.633701 0.000000 -47.654100 10.838556 -2.977046 -0.823922 6.217733 -30.763790 -13.409621 2.476233 1.345947 -2.805139 -3.065964 -21.031352 10.185229 -7.909300 0.000001 -70.421599
1.160387 17.428901 1.710040 6.692838 -52.705819 12.609842 -9.494142 2.304596 8.986581 -4.294985 -16.224236 -22.699307 -2.313021 -1.669397 -1.017431 0.184888 4.138844 7.167453 1.654300 0.000000 -47.373200 10.811401 -2.930354 -1.050708 5.829928 -31.131079 -13.235723 2.452420 1.256763 -2.682660 -3.074779 -21.051613 10.519503 -8.001000 0.000000 -70.526600
1.186549 17.445253 1.709370 7.059313 -52.773225 12.114576 -9.562938 2.177566 8.747751 -4.665777 -15.990515 -22.192407 -2.354211 -1.665513 -1.188221 0.155318 4.096501 7.540537 1.672200 0.000000 -47.151900 10.790772 -2.878127 -1.241541 5.482920 -31.407373 -13.157136 2.427404 1.173864 -2.532803 -3.092638 -21.088217 10.777094 -8.077900 0.000000 -70.556100
1.209935 17.460577 1.707179 7.417296 -52.923539 11.638248 -9.619429 2.062666 8.507535 -5.055503 -15.654695 -21.750581 -2.401540 -1.661838 -1.297891 0.120431 4.002145 7.887411 1.673800 0.000000 -46.986000 10.781460 -2.824319 -1.403265 5.165493 -31.655365 -13.155268 2.406527 1.094924 -2.358369 -3.108829 -21.095141 10.986173 -8.128600 0.000000 -70.586100
1.229512 17.474851 1.704158 7.757490 -53.143460 11.199161 -9.662108 1.962564 8.279073 -5.437442 -15.248317 -21.370878 -2.453384 -1.661437 -1.387038 0.081608 3.874080 8.226090 1.665799 0.000000 -46.923000 10.784276 -2.775376 -1.521670 4.890079 -31.836452 -13.213173 2.386855 1.025101 -2.198016 -3.126030 -21.092647 11.145582 -8.162301 0.000000 -70.552800
1.245086 17.487984 1.700620 8.078761 -53.402417 10.788703 -9.691902 1.878180 8.066211 -5.806956 -14.786111 -21.041989 -2.510201 -1.663715 -1.460972 0.036687 3.695275 8.559474 1.642900 0.000000 -46.964600 10.799236 -2.735008 -1.603296 4.648377 -31.986448 -13.307357 2.371115 0.963627 -2.062716 -3.138068 -21.056834 11.276944 -8.175100 0.000000 -70.497400
1.256306 17.499955 1.697017 8.379886 -53.671582 10.407074 -9.711593 1.809170 7.872336 -6.155027 -14.288403 -20.757359 -2.571249 -1.668206 -1.526541 -0.015106 3.457515 8.889809 1.602099 0.000000 -47.117200 10.824213 -2.706412 -1.653237 4.437025 -32.120855 -13.413450 2.359973 0.911232 -1.969942 -3.142584 -20.984096 11.397789 -8.170700 0.000001 -70.440300
